<?xml version="1.0" encoding="utf-8"?><svg viewBox="0 0 30 30" xmlns="http://www.w3.org/2000/svg" xmlns:xlink="http://www.w3.org/1999/xlink"><style>:root>svg{display:none}:root>svg:target{display:block}</style><svg viewBox="0 0 30 30" id="heart" xmlns="http://www.w3.org/2000/svg"><g clip-path="url(#aclip0_16_110)"><path d="M21.875 2.396A8 8 0 0015 6.521a8 8 0 00-6.875-4.125A8.5 8.5 0 000 11.21c0 5.683 5.982 11.891 11 16.1a6.217 6.217 0 008 0c5.017-4.209 11-10.417 11-16.1a8.5 8.5 0 00-8.125-8.813zm-4.481 23a3.716 3.716 0 01-4.788 0C6.184 20.007 2.5 14.837 2.5 11.21a6 6 0 015.625-6.313 6 6 0 015.625 6.313 1.25 1.25 0 102.5 0 6 6 0 015.625-6.313A6 6 0 0127.5 11.21c0 3.629-3.684 8.799-10.106 14.182v.005z"/></g><defs><clipPath id="aclip0_16_110"><path d="M0 0h30v30H0z"/></clipPath></defs></svg><svg viewBox="0 0 28 28" id="shopping-cart" xmlns="http://www.w3.org/2000/svg"><g clip-path="url(#bclip0_16_92)"><path d="M26.498 4.756A3.492 3.492 0 0023.813 3.5H4.949L4.9 3.09A3.5 3.5 0 001.426 0h-.26a1.167 1.167 0 100 2.333h.26a1.167 1.167 0 011.158 1.03l1.605 13.65a5.833 5.833 0 005.794 5.154h12.184a1.167 1.167 0 100-2.334H9.983a3.5 3.5 0 01-3.29-2.333H20.6a5.833 5.833 0 005.741-4.799l.916-5.08a3.492 3.492 0 00-.759-2.865zm-1.531 2.452l-.917 5.08a3.5 3.5 0 01-3.45 2.879H6.322L5.224 5.833h18.588a1.166 1.166 0 011.155 1.375zM8.167 28a2.333 2.333 0 100-4.667 2.333 2.333 0 000 4.667zM19.833 28a2.333 2.333 0 100-4.667 2.333 2.333 0 000 4.667z"/></g><defs><linearGradient id="bpaint0_linear_16_92" x1="6.083" y1="-7.98" x2="28.677" y2="-6.92" gradientUnits="userSpaceOnUse"><stop stop-color="#5E3928"/><stop offset=".911" stop-color="#E4A16F"/></linearGradient><linearGradient id="bpaint1_linear_16_92" x1="6.873" y1="21.653" x2="10.736" y2="21.8" gradientUnits="userSpaceOnUse"><stop stop-color="#5E3928"/><stop offset=".911" stop-color="#E4A16F"/></linearGradient><linearGradient id="bpaint2_linear_16_92" x1="18.539" y1="21.653" x2="22.403" y2="21.8" gradientUnits="userSpaceOnUse"><stop stop-color="#5E3928"/><stop offset=".911" stop-color="#E4A16F"/></linearGradient><clipPath id="bclip0_16_92"><path d="M0 0h28v28H0z"/></clipPath></defs></svg><svg viewBox="0 0 30 30" id="user" xmlns="http://www.w3.org/2000/svg"><g clip-path="url(#cclip0_16_80)"><path d="M15 15a7.5 7.5 0 10-7.5-7.5A7.508 7.508 0 0015 15zm0-12.5a5 5 0 110 10 5 5 0 010-10zM15 17.5A11.262 11.262 0 003.75 28.75a1.25 1.25 0 002.5 0 8.75 8.75 0 0117.5 0 1.25 1.25 0 002.5 0A11.262 11.262 0 0015 17.5z"/></g><defs><clipPath id="cclip0_16_80"><path d="M0 0h30v30H0z"/></clipPath></defs></svg></svg>